<?xml version="1.0" encoding="utf-8"?>
<!-- Generator: Adobe Illustrator 27.9.4, SVG Export Plug-In . SVG Version: 9.03 Build 54784)  -->
<svg version="1.1" id="Layer_1" xmlns="http://www.w3.org/2000/svg" xmlns:xlink="http://www.w3.org/1999/xlink" x="0px" y="0px"
	 viewBox="0 0 576 512" style="enable-background:new 0 0 576 512;" xml:space="preserve">
<style type="text/css">
	.st0{fill:#0C2A56;}
</style>
<path class="st0" d="M0,64C0,28.7,28.7,0,64,0h160v128c0,17.7,14.3,32,32,32h128v38.6c-73.9,20.9-128,88.8-128,169.4
	c0,59.1,29.1,111.3,73.7,143.3c-3.2,0.5-6.4,0.7-9.7,0.7H64c-35.3,0-64-28.7-64-64V64z M384,128H256V0L384,128z M432,224
	c79.5,0,144,64.5,144,144s-64.5,144-144,144s-144-64.5-144-144S352.5,224,432,224z M432,464c13.3,0,24-10.7,24-24s-10.7-24-24-24
	s-24,10.7-24,24S418.7,464,432,464z M368,321.6v6.4c0,8.8,7.2,16,16,16s16-7.2,16-16v-6.4c0-5.3,4.3-9.6,9.6-9.6h40.5
	c7.7,0,13.9,6.2,13.9,13.9c0,5.2-2.9,9.9-7.4,12.3l-32,16.8c-5.3,2.8-8.6,8.2-8.6,14.2V384c0,8.8,7.2,16,16,16s16-7.2,16-16v-5.1
	l23.5-12.3C486.6,358.7,496,343,496,326c0-25.4-20.6-45.9-45.9-45.9h-40.5c-23,0-41.6,18.6-41.6,41.6V321.6z"/>
</svg>
